<?xml version="1.0" encoding="UTF-8"?>
<svg xmlns="http://www.w3.org/2000/svg" xmlns:xlink="http://www.w3.org/1999/xlink" width="60px" height="60px" viewBox="0 0 60 60" version="1.1">
<g id="surface1">
<path style=" stroke:none;fill-rule:nonzero;fill:rgb(77.64706%,15.686275%,15.686275%);fill-opacity:1;" d="M 47.5 52.5 L 12.5 52.5 C 9.738281 52.5 7.5 50.261719 7.5 47.5 L 7.5 12.5 C 7.5 9.738281 9.738281 7.5 12.5 7.5 L 47.5 7.5 C 50.261719 7.5 52.5 9.738281 52.5 12.5 L 52.5 47.5 C 52.5 50.261719 50.261719 52.5 47.5 52.5 Z M 47.5 52.5 "/>
<path style=" stroke:none;fill-rule:nonzero;fill:rgb(100%,100%,100%);fill-opacity:1;" d="M 46.25 28.84375 L 46.25 29.90625 C 46.238281 29.960938 46.226562 30.019531 46.21875 30.078125 C 46.164062 30.539062 46.128906 31 46.050781 31.457031 C 45.800781 32.945312 45.261719 34.328125 44.460938 35.609375 C 43.242188 37.546875 41.59375 39.027344 39.523438 40.039062 C 38.328125 40.625 37.039062 41.003906 35.714844 41.152344 C 35.421875 41.1875 35.128906 41.21875 34.832031 41.25 L 23.417969 41.25 C 23.359375 41.238281 23.300781 41.222656 23.242188 41.21875 C 22.09375 41.148438 20.984375 40.886719 19.929688 40.429688 C 17.628906 39.433594 15.917969 37.816406 14.796875 35.59375 C 14.296875 34.613281 13.980469 33.554688 13.847656 32.464844 C 13.8125 32.203125 13.78125 31.9375 13.75 31.671875 L 13.75 30.644531 C 13.761719 30.585938 13.777344 30.53125 13.78125 30.472656 C 13.839844 29.484375 14.046875 28.523438 14.40625 27.601562 C 15.375 25.121094 17.066406 23.28125 19.46875 22.089844 C 20.714844 21.46875 22.042969 21.144531 23.433594 21.074219 C 24.113281 21.039062 24.792969 21.078125 25.46875 21.167969 C 25.53125 21.175781 25.617188 21.148438 25.660156 21.105469 C 26.632812 20.121094 27.742188 19.320312 28.988281 18.714844 C 30.199219 18.128906 31.472656 17.75 32.816406 17.597656 C 33.132812 17.5625 33.449219 17.53125 33.765625 17.5 L 34.738281 17.5 C 34.800781 17.511719 34.863281 17.519531 34.929688 17.527344 C 35.410156 17.585938 35.894531 17.621094 36.375 17.699219 C 37.863281 17.945312 39.25 18.476562 40.535156 19.265625 C 42.503906 20.472656 44.003906 22.105469 45.027344 24.164062 C 45.621094 25.347656 46.003906 26.625 46.152344 27.941406 C 46.1875 28.242188 46.21875 28.542969 46.25 28.84375 M 28.078125 21.984375 C 28.097656 22.011719 28.101562 22.023438 28.109375 22.027344 C 28.777344 22.355469 29.417969 22.734375 30.019531 23.171875 C 30.058594 23.199219 30.152344 23.1875 30.199219 23.160156 C 31.855469 22.121094 33.648438 21.761719 35.578125 22.101562 C 37.464844 22.429688 39.003906 23.367188 40.175781 24.859375 C 41.507812 26.550781 42.011719 28.460938 41.644531 30.585938 C 41.398438 32.011719 40.824219 33.292969 39.84375 34.363281 C 38.058594 36.316406 35.820312 37.121094 33.1875 36.78125 C 31.566406 36.570312 30.164062 35.878906 29.007812 34.71875 C 27.519531 33.230469 26.023438 31.75 24.53125 30.265625 C 24.332031 30.070312 24.109375 29.910156 23.824219 29.875 C 23.324219 29.8125 22.871094 30.0625 22.65625 30.507812 C 22.460938 30.902344 22.488281 31.351562 22.90625 31.757812 C 24.566406 33.375 26.214844 35.007812 27.875 36.625 C 28.160156 36.90625 28.464844 37.160156 28.789062 37.394531 C 30 38.265625 31.367188 38.75 32.847656 38.945312 C 34.011719 39.097656 35.164062 39.066406 36.308594 38.808594 C 38.492188 38.324219 40.300781 37.21875 41.726562 35.515625 C 42.902344 34.109375 43.613281 32.492188 43.859375 30.675781 C 44.003906 29.640625 43.972656 28.585938 43.769531 27.5625 C 43.441406 25.882812 42.726562 24.382812 41.578125 23.105469 C 39.386719 20.667969 36.632812 19.582031 33.351562 19.824219 C 32.089844 19.917969 30.898438 20.285156 29.777344 20.867188 C 29.171875 21.175781 28.601562 21.550781 28.078125 21.984375 M 27.277344 38.992188 C 27.230469 38.953125 27.1875 38.910156 27.140625 38.867188 C 26.460938 38.234375 25.777344 37.601562 25.105469 36.957031 C 24.976562 36.832031 24.855469 36.773438 24.671875 36.777344 C 23.992188 36.792969 23.3125 36.796875 22.640625 36.644531 C 19.308594 35.898438 17.371094 32.308594 18.601562 29.148438 C 19.570312 26.65625 22.253906 25.140625 24.898438 25.609375 C 26.082031 25.820312 27.125 26.316406 27.976562 27.1875 C 29.019531 28.253906 30.089844 29.289062 31.144531 30.34375 C 31.386719 30.582031 31.660156 30.695312 31.992188 30.644531 C 32.421875 30.585938 32.761719 30.382812 32.917969 29.964844 C 33.070312 29.554688 32.996094 29.167969 32.683594 28.851562 C 31.578125 27.742188 30.5 26.605469 29.347656 25.546875 C 27.117188 23.484375 24.488281 22.871094 21.582031 23.746094 C 17.671875 24.925781 15.378906 28.925781 16.273438 32.875 C 17.089844 36.472656 20.265625 39 23.980469 39.003906 C 25.015625 39.003906 26.054688 39.003906 27.09375 39.003906 C 27.144531 39.003906 27.195312 39 27.277344 38.992188 "/>
</g>
</svg>
