<?xml version="1.0" encoding="UTF-8"?>
<svg xmlns="http://www.w3.org/2000/svg" xmlns:xlink="http://www.w3.org/1999/xlink" width="60px" height="60px" viewBox="0 0 60 60" version="1.1">
<defs>
<linearGradient id="linear0" gradientUnits="userSpaceOnUse" x1="7.579" y1="29.514" x2="43.028999" y2="29.514" gradientTransform="matrix(1.25,0,0,1.25,0,0)">
<stop offset="0" style="stop-color:rgb(62.352941%,9.803922%,27.45098%);stop-opacity:1;"/>
<stop offset="1" style="stop-color:rgb(70.196078%,8.235294%,21.568627%);stop-opacity:1;"/>
</linearGradient>
<linearGradient id="linear1" gradientUnits="userSpaceOnUse" x1="25.034" y1="37.098" x2="25.034" y2="8" gradientTransform="matrix(1.25,0,0,1.25,0,0)">
<stop offset="0" style="stop-color:rgb(79.215686%,12.54902%,28.627451%);stop-opacity:1;"/>
<stop offset="1" style="stop-color:rgb(95.686275%,21.176471%,45.490196%);stop-opacity:1;"/>
</linearGradient>
</defs>
<g id="surface1">
<path style=" stroke:none;fill-rule:nonzero;fill:url(#linear0);" d="M 49.824219 18.714844 C 50.476562 18.726562 51.019531 18.734375 51.5 18.734375 C 52.753906 18.742188 53.761719 19.757812 53.765625 21.011719 C 53.800781 29.09375 53.789062 54.496094 53.75 55.066406 C 40.296875 55.089844 26.035156 54.988281 12.582031 55 C 11.785156 54.996094 10.90625 54.921875 10.289062 54.363281 C 9.824219 53.925781 9.460938 53.324219 9.476562 52.667969 C 9.472656 51.230469 9.476562 49.792969 9.472656 48.355469 C 10.5 47.667969 11.546875 47.011719 12.578125 46.328125 C 13.035156 46.378906 13.496094 46.375 13.957031 46.367188 C 22.027344 46.367188 30.097656 46.367188 38.167969 46.367188 C 42.046875 46.355469 45.925781 46.390625 49.804688 46.351562 C 49.878906 45.441406 49.816406 44.53125 49.832031 43.625 C 49.828125 35.324219 49.847656 27.019531 49.824219 18.714844 Z M 49.824219 18.714844 "/>
<path style=" stroke:none;fill-rule:nonzero;fill:rgb(95.686275%,32.941176%,54.509804%);fill-opacity:1;" d="M 5.660156 14.671875 C 7.96875 13.113281 10.28125 11.5625 12.582031 10 C 12.578125 22.109375 12.589844 34.21875 12.578125 46.328125 C 11.851562 46.828125 8.300781 49.210938 6.332031 50.507812 C 5.765625 50.878906 5.015625 50.46875 5.015625 49.789062 C 5.007812 38.496094 5.027344 27.203125 5 15.914062 C 5 15.414062 5.246094 14.949219 5.660156 14.671875 Z M 5.660156 14.671875 "/>
<path style=" stroke:none;fill-rule:nonzero;fill:url(#linear1);" d="M 12.582031 10 C 24.207031 10 35.835938 9.996094 47.460938 10 C 48.675781 10.015625 49.84375 10.96875 49.945312 12.203125 C 49.988281 14.371094 49.914062 16.546875 49.980469 18.714844 C 50.007812 27.019531 50.035156 45.445312 49.960938 46.351562 C 46.066406 46.390625 42.171875 46.355469 38.277344 46.367188 C 30.171875 46.367188 22.066406 46.367188 13.960938 46.367188 C 13.5 46.375 13.035156 46.378906 12.574219 46.328125 C 12.589844 34.21875 12.578125 22.109375 12.582031 10 M 28.554688 17.554688 C 27.78125 19.777344 27.164062 22.050781 26.445312 24.292969 C 25.105469 28.664062 23.765625 33.035156 22.421875 37.40625 C 22.296875 37.753906 22.191406 38.109375 22.132812 38.476562 C 23.402344 38.496094 24.671875 38.507812 25.945312 38.472656 C 26.429688 36.792969 26.925781 35.113281 27.394531 33.425781 C 27.441406 33.277344 27.503906 33.136719 27.5625 32.992188 C 29.96875 33 32.378906 32.960938 34.789062 33.011719 C 35.367188 34.835938 35.917969 36.671875 36.53125 38.484375 C 37.828125 38.492188 39.128906 38.503906 40.425781 38.480469 C 39.65625 35.90625 38.777344 33.367188 37.976562 30.808594 C 36.535156 26.394531 35.140625 21.96875 33.691406 17.558594 C 31.980469 17.515625 30.265625 17.523438 28.554688 17.554688 Z M 28.554688 17.554688 "/>
<path style=" stroke:none;fill-rule:nonzero;fill:rgb(89.803922%,6.27451%,31.37255%);fill-opacity:1;" d="M 30.992188 20.269531 C 31.242188 20.859375 31.339844 21.5 31.539062 22.105469 C 32.269531 24.710938 33.042969 27.300781 33.742188 29.917969 C 31.945312 29.941406 30.144531 29.941406 28.347656 29.917969 C 29.175781 26.6875 30.144531 23.496094 30.992188 20.269531 Z M 30.992188 20.269531 "/>
</g>
</svg>
