<?xml version="1.0" encoding="UTF-8"?>
<svg xmlns="http://www.w3.org/2000/svg" xmlns:xlink="http://www.w3.org/1999/xlink" width="60px" height="60px" viewBox="0 0 60 60" version="1.1">
<g id="surface1">
<path style=" stroke:none;fill-rule:nonzero;fill:rgb(0.392157%,34.117648%,60.784316%);fill-opacity:1;" d="M 43.664062 28.097656 C 42.210938 26.949219 40.257812 26.25 38.125 26.25 C 35.992188 26.25 34.039062 26.949219 32.582031 28.097656 C 31.105469 29.265625 30.121094 30.914062 30.011719 32.78125 C 29.894531 34.703125 30.722656 36.488281 32.175781 37.808594 C 33.65625 39.15625 35.765625 40 38.125 40 C 40.484375 40 42.59375 39.15625 44.074219 37.808594 C 45.523438 36.488281 46.351562 34.703125 46.238281 32.78125 C 46.128906 30.914062 45.144531 29.265625 43.664062 28.097656 Z M 43.664062 28.097656 "/>
<path style=" stroke:none;fill-rule:nonzero;fill:rgb(100%,42.745098%,0%);fill-opacity:1;" d="M 57.339844 32.414062 C 57.015625 30.136719 56.226562 27.996094 55.011719 26.046875 C 53.898438 24.253906 52.46875 22.6875 50.765625 21.363281 L 50.769531 21.363281 L 50.722656 21.347656 C 50.6875 21.316406 50.660156 21.28125 50.625 21.25 L 32.8125 8.046875 C 31.734375 7.1875 30.160156 7.359375 29.296875 8.4375 C 28.433594 9.515625 28.609375 11.089844 29.6875 11.953125 L 37.171875 17.5 L 13.125 17.5 C 11.40625 17.5 10 18.90625 10 20.625 C 10 22.34375 11.40625 23.75 13.125 23.75 L 22.066406 23.75 L 3.589844 39.503906 C 2.28125 40.625 2.128906 42.601562 3.253906 43.910156 C 3.871094 44.628906 4.746094 45 5.625 45 C 6.347656 45 7.070312 44.753906 7.660156 44.246094 L 18.851562 34.652344 C 18.824219 35.664062 18.800781 36.578125 18.808594 36.855469 C 18.808594 41.25 23.75 52.5 38.351562 52.5 C 48.75 52.5 57.453125 46.25 57.453125 35.921875 C 57.542969 34.757812 57.503906 33.582031 57.339844 32.414062 Z M 49.40625 36.441406 C 48.90625 37.800781 48.09375 39.070312 46.988281 40.179688 C 44.726562 42.457031 41.558594 43.742188 38.128906 43.75 C 34.695312 43.753906 31.527344 42.476562 29.265625 40.207031 C 28.15625 39.101562 27.34375 37.832031 26.84375 36.476562 C 26.351562 35.144531 26.160156 33.734375 26.289062 32.308594 C 26.410156 30.914062 26.828125 29.582031 27.5 28.382812 C 28.164062 27.199219 29.074219 26.132812 30.195312 25.226562 C 32.394531 23.457031 35.191406 22.503906 38.125 22.5 C 41.058594 22.496094 43.855469 23.445312 46.054688 25.203125 C 47.175781 26.105469 48.085938 27.167969 48.746094 28.347656 C 49.421875 29.546875 49.839844 30.875 49.960938 32.269531 C 50.085938 33.699219 49.898438 35.109375 49.40625 36.441406 Z M 49.40625 36.441406 "/>
</g>
</svg>
