<?xml version="1.0" encoding="UTF-8"?>
<svg xmlns="http://www.w3.org/2000/svg" xmlns:xlink="http://www.w3.org/1999/xlink" width="60px" height="60px" viewBox="0 0 60 60" version="1.1">
<g id="surface1">
<path style=" stroke:none;fill-rule:nonzero;fill:rgb(90.196079%,29.019609%,9.803922%);fill-opacity:1;" d="M 32.5 21.25 L 22.5 21.25 C 17.667969 21.25 13.75 17.332031 13.75 12.5 C 13.75 7.667969 17.667969 3.75 22.5 3.75 L 32.5 3.75 Z M 32.5 21.25 "/>
<path style=" stroke:none;fill-rule:nonzero;fill:rgb(48.627451%,30.19608%,100%);fill-opacity:1;" d="M 31.25 38.75 L 22.5 38.75 C 17.667969 38.75 13.75 34.832031 13.75 30 C 13.75 25.167969 17.667969 21.25 22.5 21.25 L 31.25 21.25 Z M 31.25 38.75 "/>
<path style=" stroke:none;fill-rule:nonzero;fill:rgb(40.000001%,73.333335%,41.568628%);fill-opacity:1;" d="M 22.5 56.25 C 17.667969 56.25 13.75 52.332031 13.75 47.5 C 13.75 42.667969 17.667969 38.75 22.5 38.75 L 31.25 38.75 L 31.25 47.5 C 31.25 52.332031 27.332031 56.25 22.5 56.25 Z M 22.5 56.25 "/>
<path style=" stroke:none;fill-rule:nonzero;fill:rgb(100%,43.921569%,26.274511%);fill-opacity:1;" d="M 40 21.25 L 31.25 21.25 L 31.25 3.75 L 40 3.75 C 44.832031 3.75 48.75 7.667969 48.75 12.5 C 48.75 17.332031 44.832031 21.25 40 21.25 Z M 40 21.25 "/>
<path style=" stroke:none;fill-rule:nonzero;fill:rgb(16.078432%,71.372551%,96.470588%);fill-opacity:1;" d="M 48.75 30 C 48.75 25.167969 44.832031 21.25 40 21.25 C 35.167969 21.25 31.25 25.167969 31.25 30 C 31.25 34.832031 35.167969 38.75 40 38.75 C 44.832031 38.75 48.75 34.832031 48.75 30 Z M 48.75 30 "/>
</g>
</svg>
