<?xml version="1.0" encoding="UTF-8"?>
<svg xmlns="http://www.w3.org/2000/svg" xmlns:xlink="http://www.w3.org/1999/xlink" width="60px" height="60px" viewBox="0 0 60 60" version="1.1">
<g id="surface1">
<path style=" stroke:none;fill-rule:nonzero;fill:rgb(54.509807%,71.764708%,94.117647%);fill-opacity:1;" d="M 34.875 30 C 34.875 32.695312 32.695312 34.875 30 34.875 C 27.304688 34.875 25.125 32.695312 25.125 30 C 25.125 27.304688 27.304688 25.125 30 25.125 C 32.695312 25.125 34.875 27.304688 34.875 30 Z M 34.875 30 "/>
<path style=" stroke:none;fill-rule:nonzero;fill:rgb(30.588236%,47.843137%,70.980394%);fill-opacity:1;" d="M 30 35.25 C 27.105469 35.25 24.75 32.894531 24.75 30 C 24.75 27.105469 27.105469 24.75 30 24.75 C 32.894531 24.75 35.25 27.105469 35.25 30 C 35.25 32.894531 32.894531 35.25 30 35.25 Z M 30 25.5 C 27.519531 25.5 25.5 27.519531 25.5 30 C 25.5 32.480469 27.519531 34.5 30 34.5 C 32.480469 34.5 34.5 32.480469 34.5 30 C 34.5 27.519531 32.480469 25.5 30 25.5 Z M 30 25.5 "/>
<path style=" stroke:none;fill-rule:nonzero;fill:rgb(54.509807%,71.764708%,94.117647%);fill-opacity:1;" d="M 18.355469 56.628906 C 17.070312 56.628906 15.902344 56.332031 14.882812 55.753906 C 13.171875 54.785156 11.988281 53.113281 11.367188 50.789062 C 10.644531 48.085938 10.730469 44.492188 11.617188 40.378906 C 4.46875 37.921875 0.375 34.148438 0.375 30 C 0.375 25.851562 4.464844 22.078125 11.617188 19.621094 C 10.730469 15.507812 10.640625 11.914062 11.367188 9.210938 C 11.988281 6.886719 13.171875 5.214844 14.878906 4.246094 C 15.902344 3.667969 17.070312 3.371094 18.351562 3.371094 C 21.644531 3.371094 25.773438 5.421875 30 9.144531 C 34.230469 5.425781 38.355469 3.378906 41.644531 3.378906 C 42.929688 3.378906 44.097656 3.671875 45.117188 4.25 C 46.828125 5.21875 48.007812 6.886719 48.632812 9.210938 C 49.355469 11.914062 49.269531 15.507812 48.382812 19.621094 C 55.53125 22.078125 59.625 25.851562 59.625 30 C 59.625 34.148438 55.53125 37.921875 48.382812 40.382812 C 49.269531 44.492188 49.355469 48.085938 48.628906 50.789062 C 48.007812 53.113281 46.828125 54.78125 45.121094 55.75 C 44.097656 56.328125 42.929688 56.621094 41.644531 56.621094 C 38.355469 56.621094 34.230469 54.574219 30 50.855469 C 25.769531 54.582031 21.644531 56.628906 18.355469 56.628906 Z M 14.503906 41.253906 C 13.757812 44.792969 13.675781 47.816406 14.265625 50.015625 C 14.671875 51.535156 15.375 52.585938 16.359375 53.144531 C 16.925781 53.464844 17.597656 53.628906 18.355469 53.628906 C 20.902344 53.628906 24.253906 51.917969 27.820312 48.800781 C 26.03125 47 24.285156 44.960938 22.625 42.730469 C 19.753906 42.421875 17.023438 41.921875 14.503906 41.253906 Z M 32.179688 48.796875 C 35.746094 51.910156 39.101562 53.621094 41.644531 53.621094 C 42.402344 53.621094 43.074219 53.460938 43.640625 53.140625 C 44.621094 52.582031 45.324219 51.53125 45.730469 50.015625 C 46.320312 47.8125 46.238281 44.792969 45.496094 41.253906 C 42.972656 41.925781 40.242188 42.421875 37.371094 42.734375 C 35.710938 44.960938 33.964844 47 32.179688 48.796875 Z M 26.675781 43.042969 C 27.761719 44.375 28.878906 45.621094 30 46.75 C 31.117188 45.621094 32.234375 44.378906 33.324219 43.042969 C 32.203125 43.097656 31.089844 43.125 30 43.125 C 28.910156 43.125 27.792969 43.097656 26.675781 43.042969 Z M 24.261719 39.882812 C 26.132812 40.042969 28.0625 40.125 30 40.125 C 31.9375 40.125 33.867188 40.042969 35.734375 39.886719 C 36.847656 38.320312 37.910156 36.683594 38.894531 35.015625 C 39.847656 33.398438 40.742188 31.710938 41.554688 30 C 40.742188 28.292969 39.847656 26.605469 38.894531 24.984375 C 37.914062 23.320312 36.851562 21.683594 35.734375 20.113281 C 33.867188 19.957031 31.941406 19.875 30 19.875 C 28.058594 19.875 26.128906 19.957031 24.265625 20.117188 C 23.148438 21.679688 22.082031 23.316406 21.101562 24.988281 C 20.148438 26.605469 19.253906 28.292969 18.441406 30 C 19.253906 31.707031 20.148438 33.394531 21.101562 35.015625 C 22.078125 36.675781 23.140625 38.3125 24.261719 39.882812 Z M 43.117188 33.585938 C 42.589844 34.59375 42.039062 35.582031 41.480469 36.535156 C 40.914062 37.496094 40.3125 38.460938 39.691406 39.410156 C 41.46875 39.136719 43.171875 38.785156 44.769531 38.363281 C 44.324219 36.824219 43.773438 35.222656 43.117188 33.585938 Z M 15.226562 38.359375 C 16.824219 38.785156 18.527344 39.136719 20.304688 39.410156 C 19.675781 38.453125 19.074219 37.488281 18.515625 36.535156 C 17.957031 35.585938 17.40625 34.597656 16.878906 33.585938 C 16.226562 35.21875 15.671875 36.816406 15.226562 38.359375 Z M 44.863281 30 C 46.007812 32.542969 46.941406 35.058594 47.644531 37.484375 C 53.195312 35.53125 56.625 32.679688 56.625 30 C 56.625 27.320312 53.195312 24.46875 47.644531 22.515625 C 46.941406 24.941406 46.007812 27.457031 44.863281 30 Z M 12.355469 22.519531 C 6.804688 24.472656 3.375 27.320312 3.375 30 C 3.375 32.679688 6.804688 35.53125 12.355469 37.480469 C 13.054688 35.054688 13.988281 32.542969 15.132812 30 C 13.988281 27.460938 13.054688 24.945312 12.355469 22.519531 Z M 15.226562 21.640625 C 15.671875 23.179688 16.226562 24.78125 16.878906 26.414062 C 17.40625 25.410156 17.953125 24.417969 18.515625 23.464844 C 19.078125 22.507812 19.679688 21.542969 20.304688 20.589844 C 18.527344 20.863281 16.824219 21.214844 15.226562 21.640625 Z M 39.691406 20.589844 C 40.320312 21.546875 40.921875 22.511719 41.480469 23.464844 C 42.039062 24.417969 42.589844 25.40625 43.121094 26.414062 C 43.773438 24.78125 44.324219 23.179688 44.769531 21.636719 C 43.171875 21.214844 41.46875 20.863281 39.691406 20.589844 Z M 18.351562 6.371094 C 17.59375 6.371094 16.925781 6.535156 16.359375 6.855469 C 15.375 7.414062 14.671875 8.46875 14.265625 9.988281 C 13.675781 12.1875 13.757812 15.210938 14.503906 18.746094 C 17.023438 18.078125 19.753906 17.578125 22.628906 17.269531 C 24.289062 15.039062 26.035156 13.003906 27.824219 11.203125 C 24.253906 8.085938 20.898438 6.371094 18.351562 6.371094 Z M 37.371094 17.265625 C 40.242188 17.578125 42.972656 18.074219 45.496094 18.746094 C 46.238281 15.207031 46.324219 12.183594 45.734375 9.984375 C 45.328125 8.46875 44.621094 7.417969 43.640625 6.859375 C 43.074219 6.539062 42.402344 6.378906 41.644531 6.378906 C 39.101562 6.378906 35.75 8.089844 32.179688 11.203125 C 33.964844 13 35.710938 15.039062 37.371094 17.265625 Z M 30 16.875 C 31.089844 16.875 32.203125 16.902344 33.324219 16.957031 C 32.234375 15.625 31.121094 14.382812 30 13.25 C 28.878906 14.382812 27.765625 15.625 26.675781 16.957031 C 27.796875 16.902344 28.910156 16.875 30 16.875 Z M 30 16.875 "/>
<path style=" stroke:none;fill-rule:nonzero;fill:rgb(30.588236%,47.843137%,70.980394%);fill-opacity:1;" d="M 18.351562 3.746094 C 21.722656 3.746094 25.851562 5.929688 30.003906 9.648438 C 34.152344 5.933594 38.277344 3.753906 41.644531 3.753906 C 42.863281 3.753906 43.96875 4.03125 44.933594 4.578125 C 46.550781 5.492188 47.671875 7.085938 48.269531 9.308594 C 49.078125 12.246094 48.90625 15.863281 47.945312 19.867188 C 54.859375 22.175781 59.25 25.824219 59.25 30 C 59.25 34.175781 54.859375 37.824219 47.941406 40.132812 C 48.949219 44.464844 49.117188 48.179688 48.269531 50.691406 C 47.671875 52.914062 46.550781 54.507812 44.9375 55.421875 C 43.96875 55.96875 43.089844 56.25 41.875 56.25 C 41.875 56.25 41.5625 56.25 41.5625 56.25 C 38.191406 56.25 34.152344 54.066406 30 50.355469 C 25.847656 54.070312 21.722656 56.253906 18.355469 56.253906 C 17.136719 56.253906 16.03125 55.976562 15.066406 55.429688 C 13.445312 54.507812 12.324219 52.917969 11.730469 50.691406 C 10.835938 47.90625 11.015625 44.242188 12.054688 40.132812 C 5.140625 37.820312 0.75 34.175781 0.75 30 C 0.75 25.824219 5.140625 22.179688 12.054688 19.867188 C 11.539062 17.574219 11.210938 15.441406 11.199219 13.5 C 11.1875 11.964844 11.398438 10.539062 11.726562 9.308594 C 12.324219 7.082031 13.445312 5.488281 15.066406 4.570312 C 16.027344 4.023438 17.136719 3.746094 18.351562 3.746094 M 14.21875 19.210938 C 16.828125 18.496094 19.722656 17.953125 22.832031 17.621094 C 24.617188 15.214844 26.488281 13.050781 28.371094 11.183594 C 24.714844 7.925781 21.160156 5.996094 18.351562 5.996094 C 17.527344 5.996094 16.796875 6.175781 16.175781 6.527344 C 15.101562 7.136719 14.335938 8.269531 13.902344 9.890625 C 13.257812 12.289062 13.40625 15.535156 14.21875 19.210938 M 45.777344 19.210938 C 46.59375 15.535156 46.738281 12.289062 46.097656 9.886719 C 45.664062 8.269531 44.898438 7.140625 43.824219 6.535156 C 43.203125 6.179688 42.46875 6.003906 41.644531 6.003906 C 38.84375 6.003906 35.285156 7.929688 31.632812 11.183594 C 33.515625 13.050781 35.382812 15.214844 37.167969 17.621094 C 40.277344 17.953125 43.171875 18.492188 45.777344 19.210938 M 25.859375 17.375 C 27.210938 17.292969 28.566406 17.222656 29.972656 17.222656 C 31.382812 17.222656 32.789062 17.296875 34.140625 17.375 C 32.785156 15.664062 31.394531 14.105469 30 12.722656 C 28.609375 14.105469 27.214844 15.664062 25.859375 17.375 M 30 40.5 C 32.070312 40.5 34.054688 40.410156 35.9375 40.242188 C 37.078125 38.65625 38.179688 36.96875 39.21875 35.203125 C 40.230469 33.480469 41.148438 31.734375 41.96875 30 C 41.148438 28.265625 40.230469 26.519531 39.21875 24.796875 C 38.179688 23.03125 37.078125 21.347656 35.9375 19.757812 C 34.054688 19.589844 32.070312 19.5 30 19.5 C 27.929688 19.5 25.945312 19.589844 24.058594 19.757812 C 22.917969 21.34375 21.816406 23.03125 20.777344 24.796875 C 19.765625 26.519531 18.847656 28.265625 18.027344 30 C 18.847656 31.734375 19.761719 33.480469 20.777344 35.203125 C 21.816406 36.96875 22.917969 38.65625 24.058594 40.242188 C 25.945312 40.410156 27.929688 40.5 30 40.5 M 43.160156 27.308594 C 44.003906 25.277344 44.703125 23.28125 45.234375 21.375 C 43.320312 20.847656 41.203125 20.414062 38.914062 20.09375 C 39.683594 21.238281 40.433594 22.425781 41.15625 23.65625 C 41.871094 24.871094 42.539062 26.089844 43.160156 27.308594 M 16.835938 27.308594 C 17.457031 26.089844 18.125 24.871094 18.835938 23.65625 C 19.5625 22.425781 20.3125 21.242188 21.085938 20.09375 C 18.792969 20.414062 16.679688 20.847656 14.761719 21.375 C 15.296875 23.285156 15.992188 25.277344 16.835938 27.308594 M 47.390625 37.964844 C 53.449219 35.914062 57 32.898438 57 30 C 57 27.101562 53.449219 24.085938 47.390625 22.035156 C 46.675781 24.585938 45.6875 27.269531 44.449219 30 C 45.6875 32.726562 46.675781 35.410156 47.390625 37.964844 M 12.609375 37.964844 C 13.320312 35.414062 14.308594 32.730469 15.546875 30 C 14.308594 27.273438 13.320312 24.589844 12.605469 22.035156 C 6.550781 24.085938 3 27.101562 3 30 C 3 32.898438 6.550781 35.914062 12.609375 37.964844 M 38.914062 39.90625 C 41.203125 39.585938 43.320312 39.152344 45.234375 38.625 C 44.699219 36.71875 44.003906 34.722656 43.160156 32.691406 C 42.539062 33.910156 41.871094 35.128906 41.15625 36.34375 C 40.433594 37.574219 39.683594 38.761719 38.914062 39.90625 M 21.082031 39.90625 C 20.3125 38.757812 19.558594 37.574219 18.835938 36.34375 C 18.121094 35.128906 17.457031 33.910156 16.835938 32.691406 C 15.992188 34.722656 15.296875 36.71875 14.765625 38.625 C 16.679688 39.152344 18.792969 39.585938 21.082031 39.90625 M 18.355469 54.003906 C 21.160156 54.003906 24.714844 52.074219 28.371094 48.816406 C 26.484375 46.949219 24.617188 44.785156 22.828125 42.375 C 19.722656 42.046875 16.828125 41.503906 14.21875 40.789062 C 13.40625 44.464844 13.261719 47.710938 13.902344 50.109375 C 14.335938 51.730469 15.101562 52.859375 16.175781 53.46875 C 16.796875 53.824219 17.53125 54.003906 18.355469 54.003906 M 41.644531 53.996094 C 42.46875 53.996094 43.203125 53.820312 43.824219 53.464844 C 44.898438 52.859375 45.660156 51.730469 46.09375 50.109375 C 46.738281 47.710938 46.589844 44.464844 45.777344 40.789062 C 43.171875 41.507812 40.273438 42.046875 37.167969 42.378906 C 35.382812 44.785156 33.515625 46.949219 31.632812 48.816406 C 35.285156 52.070312 38.839844 53.996094 41.644531 53.996094 M 30 47.28125 C 31.394531 45.898438 32.785156 44.335938 34.140625 42.625 C 32.789062 42.707031 31.472656 42.875 30.0625 42.875 C 28.652344 42.875 27.207031 42.707031 25.855469 42.625 C 27.214844 44.335938 28.605469 45.898438 30 47.28125 M 18.085938 3.054688 C 16.738281 3.054688 15.773438 3.308594 14.695312 3.917969 C 12.894531 4.941406 11.652344 6.6875 11.003906 9.113281 C 10.285156 11.804688 10.347656 15.339844 11.179688 19.375 C 4.0625 21.890625 0 25.742188 0 30 C 0 34.257812 4.066406 38.109375 11.183594 40.625 C 10.347656 44.660156 10.285156 48.195312 11.003906 50.886719 C 11.652344 53.3125 12.894531 55.058594 14.695312 56.082031 C 15.777344 56.691406 17.074219 56.953125 18.421875 56.953125 C 21.789062 56.953125 25.738281 55.050781 30 51.355469 C 34.265625 55.046875 38.28125 56.996094 41.644531 56.996094 C 42.992188 56.996094 44.226562 56.6875 45.304688 56.074219 C 47.101562 55.058594 48.34375 53.3125 48.992188 50.886719 C 49.714844 48.195312 49.652344 44.660156 48.816406 40.628906 C 55.933594 38.109375 60 34.257812 60 30 C 60 25.742188 55.933594 21.890625 48.816406 19.375 C 49.652344 15.339844 49.714844 11.800781 48.992188 9.113281 C 48.34375 6.6875 47.101562 4.941406 45.304688 3.925781 C 44.222656 3.3125 42.992188 3.003906 41.644531 3.003906 C 38.28125 3.003906 34.265625 4.953125 30 8.648438 C 25.738281 4.949219 21.703125 3.050781 18.335938 3.050781 Z M 14.789062 18.28125 C 14.445312 16.539062 14.210938 14.90625 14.199219 13.472656 C 14.1875 12.183594 14.363281 11.0625 14.625 10.082031 C 15.007812 8.664062 15.652344 7.6875 16.546875 7.179688 C 17.050781 6.890625 17.671875 6.699219 18.363281 6.699219 C 20.746094 6.699219 23.886719 8.332031 27.273438 11.222656 C 25.609375 12.929688 23.980469 14.835938 22.425781 16.910156 C 19.734375 17.210938 17.171875 17.671875 14.789062 18.28125 Z M 32.726562 11.222656 C 36.113281 8.335938 39.261719 6.753906 41.644531 6.753906 C 42.335938 6.753906 42.945312 6.898438 43.453125 7.1875 C 44.347656 7.691406 44.992188 8.667969 45.371094 10.082031 C 46.027344 12.195312 45.941406 15.003906 45.207031 18.28125 C 42.824219 17.671875 40.261719 17.210938 37.574219 16.914062 C 36.019531 14.839844 34.394531 12.929688 32.726562 11.222656 Z M 27.503906 16.546875 C 28.328125 15.570312 29.160156 14.648438 30 13.785156 C 30.839844 14.648438 31.675781 15.570312 32.496094 16.546875 C 31.65625 16.515625 30.820312 16.5 30 16.5 C 29.179688 16.5 28.34375 16.515625 27.503906 16.546875 Z M 24.46875 20.476562 C 26.273438 20.324219 28.132812 20.21875 30 20.21875 C 31.867188 20.21875 33.726562 20.324219 35.53125 20.476562 C 36.605469 21.988281 37.625 23.570312 38.570312 25.175781 C 39.488281 26.734375 40.351562 28.355469 41.140625 30 C 40.351562 31.644531 39.488281 33.265625 38.570312 34.824219 C 37.625 36.429688 36.601562 38.011719 35.527344 39.523438 C 33.726562 39.675781 31.867188 39.875 30 39.875 C 28.128906 39.875 26.269531 39.671875 24.464844 39.523438 C 23.390625 38.011719 22.367188 36.429688 21.421875 34.824219 C 20.507812 33.265625 19.644531 31.644531 18.855469 30 C 19.644531 28.355469 20.507812 26.734375 21.421875 25.175781 C 22.371094 23.570312 23.394531 21.988281 24.46875 20.476562 Z M 43.066406 25.519531 C 42.65625 24.753906 42.234375 24.003906 41.804688 23.277344 C 41.375 22.546875 40.929688 21.820312 40.464844 21.09375 C 41.796875 21.320312 43.078125 21.589844 44.300781 21.902344 C 43.949219 23.078125 43.539062 24.289062 43.066406 25.519531 Z M 15.695312 21.902344 C 16.917969 21.589844 18.199219 21.320312 19.53125 21.09375 C 19.066406 21.820312 18.621094 22.546875 18.191406 23.273438 C 17.765625 24.003906 17.339844 24.753906 16.929688 25.515625 C 16.457031 24.289062 16.046875 23.078125 15.695312 21.902344 Z M 45.273438 30 C 46.335938 27.628906 47.214844 25.28125 47.890625 23.003906 C 53.070312 24.894531 56.25 27.539062 56.25 30 C 56.25 32.460938 53.070312 35.105469 47.890625 36.996094 C 47.214844 34.71875 46.335938 32.371094 45.273438 30 Z M 12.105469 36.996094 C 6.929688 35.105469 3.75 32.457031 3.75 30 C 3.75 27.542969 6.929688 24.894531 12.105469 23.003906 C 12.78125 25.28125 13.660156 27.628906 14.722656 30 C 13.660156 32.371094 12.785156 34.71875 12.105469 36.996094 Z M 40.464844 38.90625 C 40.929688 38.179688 41.375 37.453125 41.804688 36.726562 C 42.234375 35.996094 42.65625 35.246094 43.066406 34.480469 C 43.539062 35.710938 43.949219 36.921875 44.300781 38.097656 C 43.078125 38.410156 41.796875 38.679688 40.464844 38.90625 Z M 15.695312 38.097656 C 16.046875 36.921875 16.460938 35.714844 16.929688 34.484375 C 17.339844 35.246094 17.761719 35.996094 18.191406 36.726562 C 18.617188 37.453125 19.066406 38.179688 19.53125 38.90625 C 18.199219 38.679688 16.917969 38.410156 15.695312 38.097656 Z M 18.355469 53.253906 C 17.664062 53.253906 17.054688 53.105469 16.546875 52.816406 C 15.652344 52.3125 15.007812 51.335938 14.628906 49.917969 C 14.003906 47.78125 14.074219 44.972656 14.792969 41.714844 C 17.171875 42.328125 19.734375 42.789062 22.421875 43.085938 C 23.980469 45.160156 25.605469 47.070312 27.273438 48.777344 C 23.886719 51.667969 20.738281 53.253906 18.355469 53.253906 Z M 37.574219 43.085938 C 40.261719 42.789062 42.824219 42.328125 45.207031 41.71875 C 46.035156 45.273438 46.101562 48.105469 45.371094 49.917969 C 44.992188 51.332031 44.347656 52.308594 43.457031 52.8125 C 42.945312 53.101562 42.339844 53.246094 41.644531 53.246094 L 41.644531 53.996094 L 41.644531 53.246094 C 39.261719 53.246094 36.113281 51.664062 32.726562 48.777344 C 34.390625 47.070312 36.019531 45.160156 37.574219 43.085938 Z M 30 46.214844 C 29.160156 45.355469 28.324219 44.429688 27.503906 43.453125 C 28.34375 43.484375 29.179688 43.5 30 43.5 C 30.820312 43.5 31.65625 43.484375 32.496094 43.453125 C 31.675781 44.429688 30.839844 45.355469 30 46.214844 Z M 30 46.214844 "/>
</g>
</svg>
