<svg xmlns="http://www.w3.org/2000/svg" xmlns:xlink="http://www.w3.org/1999/xlink" viewBox="0,0,256,256" width="60px" height="60px" fill-rule="nonzero"><g fill="#b4b4b4" fill-rule="nonzero" stroke="none" stroke-width="1" stroke-linecap="butt" stroke-linejoin="miter" stroke-miterlimit="10" stroke-dasharray="" stroke-dashoffset="0" font-family="none" font-weight="none" font-size="none" text-anchor="none" style="mix-blend-mode: normal"><g transform="scale(5.12,5.12)"><path d="M25.92969,0.57617c-3.52091,0.05803 -6.2182,0.73406 -6.56445,0.83594c-0.789,0.231 -2.37814,0.66805 -2.24414,1.24805c0.086,0.371 0.40109,0.54692 2.24609,0.54492c4.127,-0.005 7.3362,0.2642 9.5332,0.6582c4.468,0.807 3.41453,3.06075 2.14453,5.21875c-3.08,5.253 -11.40372,11.16305 -11.88672,11.49805c-0.635,0.437 -0.28642,0.69233 0.26758,0.48633c6.748,-2.51 13.54697,-6.8377 16.29297,-12.0957c2.33,-4.46 0.65842,-6.57622 -2.89258,-7.57422c-2.37637,-0.66863 -4.78394,-0.85513 -6.89648,-0.82031zM40.7207,17.05664c-3.09363,0.00625 -6.48842,0.51956 -8.60742,2.35156c-3.534,3.056 1.70592,8.09252 4.16992,10.97852c2.4,2.806 5.30445,6.36684 5.43945,7.58984c0.063,0.561 -0.05066,1.19823 -0.72266,1.61523c-1.097,0.684 -5.62986,1.34784 -15.00586,1.33984c-2.035,-0.001 -2.449,0.19655 -2.5,0.56055c-0.029,0.191 -0.09191,0.63125 2.49609,1.28125c0.071,0.019 10.7455,1.982 16.4375,0c5.816,-1.984 4.35159,-5.33358 3.30859,-7.26758c-1.606,-2.981 -9.01986,-11.64622 -9.63086,-12.82422c-0.572,-1.103 0.26172,-1.58789 0.26172,-1.58789c0,0 1.24005,-1.4903 11.12305,-1.4043c2.036,0.015 2.45981,-0.19941 2.50781,-0.56641c0.04,-0.303 -0.54152,-0.96 -2.47852,-1.375c-0.9135,-0.196 -3.7052,-0.69766 -6.79883,-0.69141zM16.0957,23.57813c-3.80269,0.04575 -6.85922,0.77383 -7.54297,0.95508c-1.656,0.439 -2.62659,0.88239 -2.55859,1.40039c0.052,0.383 0.47477,0.6467 2.50977,0.5957c4.851,-0.118 8.8682,0.04681 11.4082,0.75781c3.146,0.878 3.53456,2.49959 1.97656,5.68359c-0.72,1.471 -1.78739,2.99047 -3.40039,4.60547c-3.221,3.232 -7.24567,5.33342 -9.51367,6.48242c-2.205,1.119 -3.01062,0.52488 -2.76562,-0.57812c0.302,-1.351 6.55664,-12.17773 6.55664,-12.17773c0.47,-0.822 0.554,-1.59422 0,-1.82422c-0.474,-0.202 -1.33356,0.46505 -2.22656,1.49805c-3.651,4.24 -10.38477,17.14341 -10.50977,17.56641c-0.124,0.404 0.1925,0.45403 0.3125,0.45703c2.851,-0.022 20.353,-5.1993 26,-15.7793c2.977,-5.571 1.47073,-7.41366 -2.94727,-8.72266c-2.46675,-0.72938 -5.01721,-0.94737 -7.29883,-0.91992z"></path></g></g></svg>